<?xml version="1.0" standalone="no"?>
<!DOCTYPE svg PUBLIC "-//W3C//DTD SVG 20010904//EN"
 "http://www.w3.org/TR/2001/REC-SVG-20010904/DTD/svg10.dtd">
<svg version="1.0" xmlns="http://www.w3.org/2000/svg"
 width="730.000000pt" height="350.000000pt" viewBox="0 0 730.000000 350.000000"
 preserveAspectRatio="xMidYMid meet">

<g transform="translate(0.000000,350.000000) scale(0.100000,-0.100000)"
fill="#000000" stroke="none">
<path d="M5689 3397 l-166 -91 18 -31 c11 -16 19 -36 19 -42 0 -22 -508 -818
-522 -818 -16 0 -42 -36 -356 -504 l-251 -373 -85 129 c-48 72 -86 133 -86
137 0 3 32 6 70 6 l70 0 0 30 0 30 -482 -2 -483 -3 -3 -27 c-3 -27 -2 -28 50
-28 l53 0 248 -380 247 -379 -176 -223 c-226 -286 -256 -313 -368 -327 -43 -5
-52 -10 -54 -28 l-3 -23 295 0 296 0 0 25 c0 24 -3 25 -60 25 -104 0 -150 31
-150 102 0 40 12 60 146 244 88 120 109 143 119 132 16 -16 305 -465 305 -472
0 -3 -31 -6 -70 -6 -68 0 -70 -1 -70 -25 l0 -25 475 0 475 0 0 25 c0 23 -4 25
-42 25 l-43 0 -210 326 c-115 179 -211 330 -213 334 -2 5 43 67 100 137 58 70
207 257 332 416 198 250 238 295 309 349 208 157 405 337 489 447 l25 33 31
-53 c41 -73 661 -1238 701 -1318 18 -35 29 -67 24 -71 -20 -19 -705 -550 -709
-550 -3 0 -27 12 -55 26 -28 14 -52 24 -54 22 -1 -2 -7 -17 -13 -34 -9 -30 -8
-34 31 -72 35 -33 69 -50 192 -95 133 -49 165 -57 276 -68 209 -20 368 10 474
90 119 90 192 238 202 411 6 93 7 98 74 233 62 123 72 137 95 137 15 0 38 12
55 29 23 24 29 38 29 74 0 67 -35 99 -118 109 -18 2 -69 74 -237 333 -130 199
-211 333 -206 340 11 13 -644 1020 -663 1019 -8 -1 -49 78 -102 192 -49 106
-93 193 -99 193 -5 0 -85 -41 -176 -92z m-27 -339 l37 -68 -365 -430 c-201
-236 -368 -430 -370 -430 -3 0 29 50 71 111 47 68 74 116 71 126 -4 9 87 164
241 409 281 446 244 413 315 282z m232 -429 c18 -30 18 -31 -10 -72 -35 -54
-260 -277 -344 -342 -36 -27 -60 -43 -54 -35 48 66 379 480 384 480 3 0 14
-14 24 -31z m597 -354 c91 -140 159 -235 168 -235 18 0 447 -653 433 -658 -5
-1 -61 16 -125 39 -81 28 -117 46 -117 57 0 8 -18 33 -41 54 -35 33 -71 103
-236 456 -217 465 -243 522 -238 522 1 0 72 -106 156 -235z m599 -1008 l19
-39 -42 -84 c-39 -79 -57 -101 -57 -71 0 14 -61 136 -115 232 -19 33 -35 63
-35 67 0 4 48 -9 106 -29 100 -35 106 -39 124 -76z"/>
<path d="M10 1840 l0 -30 70 0 70 0 0 -655 0 -655 -70 0 c-68 0 -70 -1 -70
-25 l0 -26 548 3 c533 4 549 4 620 26 197 60 334 175 412 347 87 189 79 488
-17 683 -73 149 -221 269 -398 321 -118 35 -223 41 -702 41 l-463 0 0 -30z
m907 -56 c15 -11 36 -33 47 -48 21 -27 21 -40 24 -562 2 -354 -1 -548 -8 -574
-6 -22 -21 -52 -34 -67 -21 -25 -32 -28 -100 -31 l-76 -4 0 657 0 657 60 -4
c39 -3 70 -11 87 -24z"/>
<path d="M2325 1843 c-3 -10 -103 -281 -222 -603 -118 -322 -228 -610 -244
-641 -30 -61 -62 -88 -115 -96 -29 -5 -34 -9 -34 -34 l0 -29 201 0 200 0 -3
27 c-3 25 -8 29 -51 35 -57 8 -82 27 -97 74 -13 39 -6 66 58 234 l41 105 204
3 204 2 72 -204 c39 -113 71 -208 71 -211 0 -3 -31 -5 -70 -5 l-70 0 0 -30 0
-30 456 0 455 0 -3 28 c-3 25 -6 27 -58 30 l-55 3 -250 679 -250 680 -216 0
c-197 0 -217 -2 -224 -17z m25 -600 c47 -130 86 -245 88 -255 3 -17 -9 -18
-177 -18 -100 0 -181 3 -181 7 0 14 175 503 180 503 3 0 43 -107 90 -237z"/>
</g>
</svg>
